# xmcd
# 
# Track frame offsets:
#     150
#     17181
#     33005
# 
# Disc length: 665
# 
# Revision: 0
# Processed by: cddbd v1.5.2PL0 Copyright (c) Steve Scherf et al.
# Submitted via: BonkEnc v1.0.8
# 
DISCID=17029703
DTITLE=藤林聖子 - 鎧武乃風
DYEAR=2014
DGENRE=
TTITLE0=JUST LIVE MORE
TTITLE1=JUST LIVE MORE Orchestra Edit
TTITLE2=JUST LIVE MORE instrumental
EXTD=
EXTT0=
EXTT1=
EXTT2=
PLAYORDER=
